<svg width="112" height="22" viewBox="0 0 112 22" fill="none" xmlns="http://www.w3.org/2000/svg">
<path d="M4.14394 21.1306V13.1171H11.8642V9.67862H4.14394V5.21719H12.8576V1.66509H0V21.1306H4.14394Z" fill="#282B3A"/>
<path d="M19.0826 21.5C21.0694 21.5 22.7156 20.5907 23.4252 19.1982V19.3972C23.4252 20.0507 23.5104 20.818 23.5671 21.1306H27.3421C27.2285 20.1928 27.1718 19.3403 27.1718 17.9763V6.92219H23.3117V15.1915C23.3117 16.8112 22.148 18.09 20.3882 18.09C18.6852 18.09 17.7202 16.8681 17.7202 15.3051V6.92219H13.8601V15.9587C13.8601 19.3687 16.0456 21.5 19.0826 21.5Z" fill="#282B3A"/>
<path d="M33.1158 21.1306V12.8613C33.1158 11.2415 34.2795 9.96279 36.0393 9.96279C37.7423 9.96279 38.7073 11.1847 38.7073 12.7476V21.1306H42.5674V12.094C42.5674 8.68403 40.3819 6.55277 37.3449 6.55277C35.3581 6.55277 33.7119 7.46211 33.0023 8.85453V6.92219H29.2557V21.1306H33.1158Z" fill="#282B3A"/>
<path d="M51.6079 21.4716C55.3261 21.4716 57.3981 19.0846 58.1077 16.8112L54.9004 15.703C54.503 16.726 53.5096 18.0616 51.6363 18.0616C49.5927 18.0616 48.0316 16.4986 48.0316 14.0264C48.0316 11.5541 49.5643 10.0196 51.5795 10.0196C53.4244 10.0196 54.3327 11.27 54.7584 12.3498L58.0225 11.2131C57.3981 9.05345 55.3261 6.58119 51.5228 6.58119C47.2937 6.58119 44.1999 9.67862 44.1999 13.998C44.1999 18.3457 47.3504 21.4716 51.6079 21.4716Z" fill="#282B3A"/>
<path d="M65.9352 21.3295C66.9854 21.3295 67.9788 21.159 68.3762 21.0737L68.4045 18.0332C68.0072 18.09 67.4395 18.1468 67.0138 18.1468C65.0553 18.1468 65.0553 16.9249 65.0553 16.1008V10.1617H68.5181V6.92219H65.0553L65.0269 2.43234L61.1668 2.94384L61.1952 6.92219H58.9813V10.1617H61.1952L61.1668 16.4702C61.1385 19.6245 62.6995 21.3295 65.9352 21.3295Z" fill="#282B3A"/>
<path d="M72.2533 5.33085C73.5874 5.33085 74.6659 4.25101 74.6659 2.88701C74.6659 1.57984 73.5874 0.5 72.2533 0.5C70.891 0.5 69.8408 1.57984 69.8408 2.88701C69.8408 4.25101 70.891 5.33085 72.2533 5.33085ZM74.1834 21.1306V6.92219H70.3233V21.1306H74.1834Z" fill="#282B3A"/>
<path d="M83.3015 21.4716C87.5873 21.4716 90.6527 18.3457 90.6527 14.0264C90.6527 9.67862 87.5873 6.58119 83.3015 6.58119C79.0156 6.58119 75.9503 9.67862 75.9503 14.0264C75.9503 18.3457 79.0156 21.4716 83.3015 21.4716ZM83.3015 18.0332C81.3998 18.0332 79.782 16.6123 79.782 14.0264C79.782 11.412 81.3998 10.0196 83.3015 10.0196C85.2032 10.0196 86.821 11.412 86.821 14.0264C86.821 16.6407 85.2032 18.0332 83.3015 18.0332Z" fill="#282B3A"/>
<path d="M96.356 21.1306V12.8613C96.356 11.2415 97.5197 9.96279 99.2794 9.96279C100.982 9.96279 101.947 11.1847 101.947 12.7476V21.1306H105.808V12.094C105.808 8.68403 103.622 6.55277 100.585 6.55277C98.5982 6.55277 96.952 7.46211 96.2424 8.85453V6.92219H92.4959V21.1306H96.356Z" fill="#282B3A"/>
<path d="M109.644 21.1305C110.95 21.1305 112 20.0791 112 18.7435C112 17.4648 110.95 16.4133 109.644 16.4133C108.31 16.4133 107.288 17.4648 107.288 18.7435C107.288 20.0791 108.31 21.1305 109.644 21.1305Z" fill="#3936EE"/>
</svg>
